Black Label Society - Hangover Music Vol. VI - CD remaster by MC Lurken (a.k.a. Beavis39)



!!!!!!!!!!!!!THIS IS NOT AN OFFICIAL REMASTER, THIS IS A FAN RELEASE!!!!!!!!!!!!!!
!!!!!!!!!!!!!THIS IS NOT AN OFFICIAL REMASTER, THIS IS A FAN RELEASE!!!!!!!!!!!!!!
!!!!!!!!!!!!!THIS IS NOT AN OFFICIAL REMASTER, THIS IS A FAN RELEASE!!!!!!!!!!!!!!



1 - Crazy Or High
2 - Queen Of Sorrow
3 - Steppin Stone
4 - Yesterday, Today, Tomorrow
5 - Takillya (Estyabon)
6 - Won't Find It Here
7 - She Deserves A Free Ride (Val's Song)
8 - House Of Doom
9 - Damage Is Done
10 - Layne
11 - Woman Don't Cry
12 - No Other
13 - Whiter Shade Of Pale
14 - Once More
15 - Fear



foobar2000 1.1.11 / Dynamic Range Meter 1.1.1
log date: 2012-06-19 03:19:14

--------------------------------------------------------------------------------
Analyzed: ? / ?
--------------------------------------------------------------------------------

DR         Peak         RMS     Duration Track
--------------------------------------------------------------------------------
DR6     -0.40 dB    -9.99 dB      3:33 ?-01 - Crazy Or High
DR6     -0.42 dB    -7.91 dB      4:15 ?-02 - Queen Of Sorrow
DR4     -0.22 dB    -6.14 dB      4:55 ?-03 - Steppin Stone
DR7     -0.96 dB   -10.24 dB      3:44 ?-04 - Yesterday, Today, Tomorrow
DR9     -3.31 dB   -16.67 dB      0:39 ?-05 - Takillya (Estyabon)
DR6     -0.80 dB    -8.73 dB      6:26 ?-06 - Won't Find It Here
DR9     -0.40 dB   -11.36 dB      4:20 ?-07 - She Deserves A Free Ride (Val's Song)
DR5     -0.65 dB    -7.22 dB      3:46 ?-08 - House Of Doom
DR6     -0.88 dB    -9.79 dB      5:20 ?-09 - Damage Is Done
DR6     -0.80 dB   -10.45 dB      5:16 ?-10 - Layne
DR6     -0.89 dB    -9.51 dB      5:39 ?-11 - Woman Don't Cry
DR6     -0.89 dB    -9.04 dB      4:59 ?-12 - No Other
DR8     -1.18 dB   -11.87 dB      5:08 ?-13 - Whiter Shade Of Pale
DR5     -0.69 dB    -8.19 dB      4:07 ?-14 - Once More
DR6     -1.27 dB    -9.41 dB      4:38 ?-15 - Fear
--------------------------------------------------------------------------------

Number of tracks:  15
Official DR value: DR6

Samplerate:        44100 Hz
Channels:          2
Bits per sample:   16
Bitrate:           1411 kbps
Codec:             PCM



16-bit/44.1kHz files provided for those who still use a CD player or just don't want/care about 24/96 hi-res.


Absolutely no thanks whatsoever to the Green Demon


enjoy :)